<svg width="128" height="128" viewBox="0 0 128 128" fill="none" xmlns="http://www.w3.org/2000/svg">
<path d="M92.9086 19.5985C92.9086 19.5985 80.629 39.1969 65.4219 39.1969C50.2148 39.1969 37.9353 19.5985 37.9353 19.5985C37.9353 19.5985 50.2148 0 65.4219 0C80.629 0 92.9086 19.5985 92.9086 19.5985Z" class="main-color" />
<path d="M65.4219 26.3484C69.7784 26.3484 73.31 22.8167 73.31 18.4602C73.31 14.1037 69.7784 10.572 65.4219 10.572C61.0653 10.572 57.5337 14.1037 57.5337 18.4602C57.5337 22.8167 61.0653 26.3484 65.4219 26.3484Z" fill="#ACCA53"/>
<path d="M45.4981 50.0941C42.0012 47.7357 37.8538 46.6786 33.6251 47.0852C28.5832 47.5731 24.1918 50.0941 21.1016 54.0788C15.5718 61.2351 16.3037 71.4816 22.7281 77.906C22.972 78.1499 23.1347 78.3126 23.3786 78.5565C26.8755 81.6468 31.3481 83.1919 35.9835 82.8666C36.878 82.7853 37.5286 83.4358 37.6099 84.249C37.6099 84.6556 37.5286 85.0623 37.2033 85.3875C36.9593 85.7128 36.5527 85.8755 36.1461 85.8755C35.6582 85.8755 35.1702 85.9568 34.7636 85.9568C29.803 85.9568 25.0051 84.1677 21.3456 80.8335C21.1016 80.5896 20.8577 80.3456 20.6137 80.1016C13.0508 72.6201 12.2376 60.6658 18.7433 52.2897C22.3215 47.5731 27.526 44.7268 33.3812 44.1576C35.5768 43.9136 37.7725 44.0763 39.8869 44.5642L22.3215 26.9988C-0.773819 50.0941 -0.773819 87.5832 22.3215 110.678L64.1207 68.8793L45.4981 50.0941ZM36.0648 74.2465C31.0228 74.2465 26.8755 70.0991 26.8755 65.0572C26.8755 60.0153 30.9415 55.9492 36.0648 55.9492C41.188 55.9492 45.2541 60.0966 45.2541 65.1385C45.2541 70.1804 41.1067 74.2465 36.0648 74.2465Z" class="secondary-color" />
<path d="M106.001 26.9988C106.001 26.9988 96.1611 37.0013 88.3542 44.8895C89.6554 44.5642 91.0378 44.3202 92.4203 44.2389C97.8688 43.9136 103.073 45.7027 107.139 49.3622C107.383 49.6061 107.627 49.8501 107.871 50.0941C115.434 57.5756 116.247 69.5299 109.742 77.906C105.757 83.1105 99.4953 86.2008 92.9896 86.2008C92.7456 86.2008 92.5016 86.2008 92.339 86.2008C91.9324 86.2008 91.5258 86.0381 91.2818 85.7128C91.0378 85.3875 90.8752 85.0623 90.8752 84.6556C90.8752 84.249 91.0378 83.8424 91.3631 83.5985C91.6884 83.3545 92.0137 83.1919 92.4203 83.1919C98.1941 83.3545 103.805 80.7522 107.383 76.1169C112.913 68.9606 112.181 58.7141 105.757 52.2897C105.513 52.0458 105.35 51.8831 105.106 51.6392C101.691 48.5489 97.2996 47.0038 92.6643 47.3291C88.6795 47.5731 84.6948 49.0369 81.6859 51.6392C81.198 52.0458 79.6529 53.5096 79.0023 54.0788C78.7583 54.3228 78.5143 54.5667 78.2704 54.8107L22.4026 110.678C45.4979 133.774 82.987 133.774 106.082 110.678C129.178 87.5832 129.096 50.0941 106.001 26.9988ZM83.231 66.6836C82.1738 60.4219 87.541 55.0547 93.8028 56.1118C97.6249 56.7624 100.715 59.7713 101.284 63.5934C102.342 69.8552 96.9743 75.2224 90.7126 74.1652C86.9718 73.5146 83.8816 70.4244 83.231 66.6836Z" class="main-color"/>
<path fill-rule="evenodd" clip-rule="evenodd" d="M74.855 88.0713L64.2019 102.709L53.5488 88.0713H74.855Z" fill="#ACCA53"/>
 <style>
        .main-color { fill:#006D68; }
        .secondary-color { fill:#3C3C3C; }
        @media (prefers-color-scheme: dark) {
            .main-color { fill: #FFF; }
            .secondary-color { fill: #ACCA53; }
        }
    </style>
</svg>
