<svg width="150" height="54" viewBox="0 0 150 54" fill="none" xmlns="http://www.w3.org/2000/svg">
<path d="M61.6497 10.5374H63.8384V22.5246H61.6497V10.5374Z" fill="white"/>
<path d="M78.2164 14.8473C78.6878 15.4197 78.9235 16.2615 78.9235 17.4064V22.4909H76.8021V17.5074C76.8021 16.8676 76.7011 16.3962 76.4654 16.1268C76.2634 15.8238 75.893 15.6891 75.4216 15.6891C74.8492 15.6891 74.4114 15.8911 74.1084 16.2615C73.8053 16.6319 73.637 17.1707 73.637 17.8778V22.5245H71.5156V17.5074C71.5156 16.8676 71.4146 16.3962 71.2126 16.1268C71.0105 15.8238 70.6401 15.6891 70.1687 15.6891C69.63 15.6891 69.1922 15.8911 68.8555 16.2615C68.5525 16.6319 68.3841 17.1707 68.3841 17.8778V22.5245H66.2628V14.2412H68.3504V15.4197C68.5861 14.982 68.9565 14.6116 69.3943 14.3759C69.832 14.1402 70.3371 14.0392 70.9095 14.0392C72.1554 14.0392 72.9972 14.5442 73.4013 15.5881C73.6706 15.1167 74.041 14.7126 74.5124 14.4432C74.9839 14.1738 75.5563 14.0392 76.1287 14.0392C77.0379 14.0055 77.745 14.3085 78.2164 14.8473Z" fill="white"/>
<path d="M87.7456 14.578C88.318 14.9484 88.7558 15.4535 89.0588 16.127C89.3619 16.8004 89.5302 17.5412 89.5302 18.4167C89.5302 19.2921 89.3619 20.0329 89.0588 20.6727C88.7558 21.3125 88.318 21.8175 87.7456 22.1543C87.2068 22.491 86.5334 22.693 85.8263 22.693C85.2202 22.693 84.7151 22.5583 84.2437 22.3226C83.7723 22.0869 83.4356 21.7165 83.1662 21.2788V25.6225H81.0785V14.2413H83.1662V15.4872C83.4019 15.0158 83.7723 14.679 84.2437 14.4097C84.7151 14.1403 85.2539 14.0393 85.86 14.0393C86.5671 14.0056 87.2068 14.2076 87.7456 14.578ZM86.8365 20.336C87.2069 19.8646 87.4089 19.2248 87.4089 18.383C87.4089 17.5075 87.2069 16.8677 86.8365 16.3627C86.4661 15.8912 85.9273 15.6555 85.2875 15.6555C84.6141 15.6555 84.0753 15.8912 83.7049 16.3627C83.3345 16.8341 83.1662 17.4738 83.1662 18.3493C83.1662 19.1911 83.3345 19.8646 83.7049 20.336C84.0753 20.8074 84.6141 21.0431 85.2875 21.0431C85.961 21.0094 86.4661 20.8074 86.8365 20.336Z" fill="white"/>
<path d="M97.4432 14.881C98.0156 15.4534 98.285 16.3289 98.285 17.5074V22.5582H96.2647V21.2787C96.0626 21.7164 95.7596 22.0531 95.3555 22.3225C94.9514 22.5582 94.4464 22.6929 93.9076 22.6929C93.3689 22.6929 92.8638 22.5919 92.3924 22.3562C91.9546 22.1205 91.5842 21.8174 91.3149 21.4134C91.0455 21.0093 90.9108 20.5716 90.9108 20.1001C90.9108 19.494 91.0792 19.0226 91.3822 18.6522C91.6853 18.3155 92.1903 18.0461 92.8974 17.8778C93.6046 17.7094 94.5811 17.6421 95.7933 17.6421H96.231V17.238C96.231 16.6656 96.0963 16.2615 95.8606 16.0258C95.6249 15.7901 95.2208 15.6554 94.6484 15.6554C94.2107 15.6554 93.7393 15.7228 93.2678 15.8911C92.7964 16.0595 92.325 16.2615 91.8536 16.5309L91.2475 15.083C91.7189 14.7799 92.2577 14.5442 92.9311 14.3422C93.6046 14.1402 94.2107 14.0392 94.8168 14.0392C96.029 14.0055 96.8708 14.3085 97.4432 14.881ZM95.7259 20.5716C96.0963 20.2012 96.2647 19.6961 96.2647 19.09V18.7196H95.9616C95.1872 18.7196 94.6147 18.7533 94.2107 18.8206C93.8066 18.8879 93.5035 19.0226 93.3015 19.191C93.1331 19.3594 93.0321 19.5951 93.0321 19.8981C93.0321 20.2685 93.1668 20.5716 93.4025 20.8073C93.6382 21.043 93.975 21.144 94.3453 21.144C94.9178 21.144 95.3892 20.9419 95.7259 20.5716Z" fill="white"/>
<path d="M101.989 22.1541C101.349 21.8173 100.844 21.3123 100.507 20.6725C100.171 20.0327 100.002 19.2582 100.002 18.4164C100.002 17.541 100.171 16.8002 100.541 16.1267C100.911 15.4533 101.417 14.9482 102.056 14.5778C102.73 14.2074 103.471 14.0391 104.346 14.0391C104.918 14.0391 105.525 14.1401 106.063 14.3084C106.636 14.5105 107.073 14.7462 107.41 15.0492L106.804 16.5308C106.467 16.2614 106.097 16.0257 105.693 15.891C105.289 15.7563 104.918 15.6553 104.514 15.6553C103.774 15.6553 103.201 15.891 102.797 16.3288C102.393 16.8002 102.191 17.44 102.191 18.3154C102.191 19.1572 102.393 19.8307 102.797 20.2684C103.201 20.7398 103.774 20.9419 104.514 20.9419C104.885 20.9419 105.289 20.8745 105.693 20.7062C106.097 20.5715 106.467 20.3358 106.804 20.0664L107.41 21.548C107.04 21.8847 106.568 22.1204 106.03 22.3224C105.457 22.5244 104.885 22.5918 104.245 22.5918C103.369 22.6591 102.629 22.4908 101.989 22.1541Z" fill="white"/>
<path d="M113.842 21.0094L113.741 22.592C113.404 22.6256 113.101 22.6593 112.798 22.6593C111.619 22.6593 110.777 22.3899 110.205 21.8512C109.666 21.3124 109.363 20.5043 109.363 19.4604V15.8238H107.781V14.2413H109.363V11.7495H111.484V14.2413H113.673V15.8238H111.484V19.4268C111.484 20.5379 111.99 21.0767 113.033 21.0767C113.303 21.0767 113.572 21.043 113.842 21.0094Z" fill="white"/>
<path d="M61.6497 30.7068H69.4953V32.4577H63.8047V35.7239H69.1586V37.4749H63.8047V42.6941H61.6497V30.7068Z" fill="white"/>
<path d="M76.3644 35.9597L75.1185 36.0944C73.7043 36.2291 72.9972 36.9698 72.9972 38.2494V42.7278H70.8758V34.4108H72.8962V35.8587C73.3339 34.8485 74.2094 34.3097 75.5563 34.2424L76.1961 34.175L76.3644 35.9597Z" fill="white"/>
<path d="M83.5366 35.0169C84.109 35.5893 84.3784 36.4648 84.3784 37.6433V42.6941H82.3581V41.4146C82.156 41.8523 81.853 42.189 81.4489 42.4584C81.0448 42.6941 80.5398 42.8288 80.001 42.8288C79.4622 42.8288 78.9572 42.7278 78.4858 42.4921C78.048 42.2564 77.6776 41.9533 77.4083 41.5493C77.1389 41.1452 77.0042 40.7075 77.0042 40.236C77.0042 39.6299 77.1725 39.1585 77.4756 38.7881C77.7786 38.4514 78.2837 38.182 78.9908 38.0137C79.698 37.8453 80.6744 37.778 81.8866 37.778H82.3244V37.3739C82.3244 36.8015 82.1897 36.3974 81.954 36.1617C81.7183 35.926 81.3142 35.7913 80.7418 35.7913C80.3041 35.7913 79.8326 35.8587 79.3612 36.027C78.8898 36.1954 78.4184 36.3974 77.947 36.6668L77.3409 35.2189C77.8123 34.9158 78.3511 34.6801 79.0245 34.4781C79.698 34.2761 80.3041 34.175 80.9102 34.175C82.1224 34.175 82.9642 34.4781 83.5366 35.0169ZM81.8193 40.7411C82.1897 40.3707 82.3581 39.8656 82.3581 39.2595V38.8892H82.055C81.2805 38.8892 80.7081 38.9228 80.3041 38.9902C79.9 39.0575 79.5969 39.1922 79.3949 39.3606C79.2265 39.5289 79.1255 39.7646 79.1255 40.0677C79.1255 40.4381 79.2602 40.7411 79.4959 40.9768C79.7316 41.2125 80.0684 41.3136 80.4387 41.3136C81.0112 41.3136 81.4826 41.1115 81.8193 40.7411Z" fill="white"/>
<path d="M98.5207 35.0171C98.9921 35.5895 99.2278 36.4313 99.2278 37.5762V42.6607H97.1065V37.6435C97.1065 37.0037 97.0055 36.5323 96.7698 36.2629C96.5677 35.9599 96.1973 35.8252 95.7259 35.8252C95.1535 35.8252 94.7157 36.0272 94.4127 36.3976C94.1096 36.768 93.9413 37.3068 93.9413 38.0139V42.6607H91.8199V37.6435C91.8199 37.0037 91.7189 36.5323 91.5169 36.2629C91.3149 35.9599 90.9445 35.8252 90.4731 35.8252C89.9343 35.8252 89.4966 36.0272 89.1598 36.3976C88.8568 36.768 88.6884 37.3068 88.6884 38.0139V42.6607H86.5671V34.3436H88.6548V35.5222C88.8905 35.0844 89.2609 34.714 89.6986 34.4783C90.1363 34.2426 90.6414 34.1416 91.2138 34.1416C92.4597 34.1416 93.3015 34.6467 93.7056 35.6905C93.975 35.2191 94.3453 34.815 94.8168 34.5457C95.2882 34.2763 95.8606 34.1416 96.433 34.1416C97.3758 34.1753 98.083 34.4783 98.5207 35.0171Z" fill="white"/>
<path d="M108.69 38.9229H103.033C103.1 39.6973 103.336 40.2697 103.74 40.6401C104.144 41.0105 104.716 41.2126 105.423 41.2126C106.333 41.2126 107.174 40.9095 107.949 40.3371L108.555 41.785C108.185 42.088 107.68 42.3574 107.107 42.5595C106.535 42.7615 105.929 42.8625 105.356 42.8625C104.009 42.8625 102.932 42.4921 102.124 41.7177C101.349 40.9432 100.945 39.8994 100.945 38.5525C100.945 37.7107 101.113 36.9362 101.45 36.2964C101.787 35.623 102.258 35.1179 102.898 34.7812C103.504 34.4108 104.211 34.2424 104.986 34.2424C106.131 34.2424 107.04 34.6128 107.713 35.3536C108.387 36.0944 108.723 37.1046 108.723 38.3841V38.9229H108.69ZM103.673 36.2291C103.336 36.5995 103.1 37.1046 103.033 37.778H106.871C106.838 37.0709 106.669 36.5658 106.366 36.1954C106.063 35.825 105.592 35.6567 105.053 35.6567C104.447 35.6903 104.009 35.8587 103.673 36.2291Z" fill="white"/>
<path d="M123.573 34.3772L120.307 42.6942H118.455L116.401 37.3403L114.414 42.6942H112.562L109.296 34.3772H111.484L113.606 40.1688L115.727 34.3772H117.242L119.364 40.2025L121.485 34.3772H123.573Z" fill="white"/>
<path d="M126.267 42.2903C125.627 41.9535 125.122 41.4485 124.785 40.775C124.448 40.1016 124.246 39.3608 124.246 38.4853C124.246 37.6098 124.415 36.8354 124.785 36.1956C125.122 35.5558 125.627 35.0508 126.267 34.6804C126.906 34.3436 127.647 34.1416 128.489 34.1416C129.331 34.1416 130.072 34.31 130.711 34.6804C131.351 35.0171 131.856 35.5222 132.193 36.1956C132.53 36.8354 132.698 37.6098 132.698 38.4853C132.698 39.3608 132.53 40.1352 132.193 40.775C131.856 41.4485 131.351 41.9535 130.711 42.2903C130.072 42.627 129.331 42.829 128.489 42.829C127.647 42.829 126.906 42.6607 126.267 42.2903ZM130.038 40.5056C130.408 40.0679 130.577 39.3945 130.577 38.4853C130.577 37.6098 130.408 36.9364 130.038 36.4987C129.667 36.0272 129.162 35.8252 128.489 35.8252C127.815 35.8252 127.277 36.0609 126.906 36.4987C126.536 36.9701 126.368 37.6098 126.368 38.4853C126.368 39.3608 126.536 40.0342 126.906 40.5056C127.277 40.9434 127.782 41.1791 128.455 41.1791C129.162 41.1791 129.701 40.9434 130.038 40.5056Z" fill="white"/>
<path d="M139.937 35.9597L138.692 36.0944C137.277 36.2291 136.57 36.9698 136.57 38.2494V42.7278H134.449V34.4108H136.469V35.8587C136.907 34.8485 137.782 34.3097 139.129 34.2424L139.769 34.175L139.937 35.9597Z" fill="white"/>
<path d="M146.672 42.6941L143.103 38.8891V42.6941H140.981V30.7068H143.103V38.0136L146.436 34.3771H149.029L145.291 38.3504L149.298 42.6604H146.672V42.6941Z" fill="white"/>
<path d="M36.7996 8.31494C36.7996 8.31494 31.7151 16.4299 25.4184 16.4299C19.1217 16.4299 14.0372 8.31494 14.0372 8.31494C14.0372 8.31494 19.1217 0.199951 25.4184 0.199951C31.7151 0.199951 36.7996 8.31494 36.7996 8.31494Z" fill="white"/>
<path d="M25.4184 11.1098C27.2223 11.1098 28.6846 9.64747 28.6846 7.84359C28.6846 6.03972 27.2223 4.57739 25.4184 4.57739C23.6145 4.57739 22.1522 6.03972 22.1522 7.84359C22.1522 9.64747 23.6145 11.1098 25.4184 11.1098Z" fill="#ACCA53"/>
<path d="M17.1687 20.942C15.7208 19.9656 14.0036 19.5278 12.2526 19.6962C10.1649 19.8982 8.34663 20.942 7.06709 22.592C4.77738 25.5551 5.08043 29.7978 7.74053 32.4579C7.84155 32.5589 7.9089 32.6263 8.00991 32.7273C9.45782 34.0068 11.3098 34.6466 13.2291 34.5119C13.5995 34.4783 13.8689 34.7476 13.9025 35.0844C13.9025 35.2527 13.8689 35.4211 13.7342 35.5558C13.6332 35.6905 13.4648 35.7578 13.2964 35.7578C13.0944 35.7578 12.8924 35.7915 12.724 35.7915C10.67 35.7915 8.68336 35.0507 7.16811 33.6701C7.06709 33.5691 6.96607 33.4681 6.86506 33.3671C3.73355 30.2692 3.39682 25.3194 6.0906 21.8512C7.57217 19.8982 9.72719 18.7197 12.1516 18.484C13.0607 18.383 13.9699 18.4503 14.8454 18.6523L7.57217 11.3792C-1.99072 20.942 -1.99072 36.4649 7.57217 46.0278L24.8797 28.7203L17.1687 20.942ZM13.2628 30.9427C11.1751 30.9427 9.45781 29.2254 9.45781 27.1377C9.45781 25.05 11.1414 23.3664 13.2628 23.3664C15.3841 23.3664 17.0677 25.0837 17.0677 27.1714C17.0677 29.2591 15.3504 30.9427 13.2628 30.9427Z" fill="#ACCA53"/>
<path d="M42.2208 11.3792C42.2208 11.3792 38.1465 15.5208 34.914 18.787C35.4527 18.6523 36.0252 18.5513 36.5976 18.5176C38.8536 18.383 41.0086 19.1237 42.6922 20.639C42.7933 20.74 42.8943 20.841 42.9953 20.942C46.1268 24.0399 46.4635 28.9897 43.7698 32.4579C42.1198 34.6129 39.5271 35.8925 36.8333 35.8925C36.7323 35.8925 36.6313 35.8925 36.5639 35.8925C36.3956 35.8925 36.2272 35.8251 36.1262 35.6905C36.0252 35.5558 35.9578 35.4211 35.9578 35.2527C35.9578 35.0844 36.0252 34.916 36.1598 34.815C36.2945 34.714 36.4292 34.6466 36.5976 34.6466C38.9883 34.714 41.3117 33.6365 42.7933 31.7171C45.083 28.754 44.7799 24.5113 42.1198 21.8512C42.0188 21.7502 41.9515 21.6828 41.8504 21.5818C40.4362 20.3023 38.6179 19.6625 36.6986 19.7972C35.0487 19.8982 33.3987 20.5043 32.1529 21.5818C31.9508 21.7502 31.3111 22.3563 31.0417 22.592C30.9407 22.693 30.8396 22.794 30.7386 22.895L7.60584 46.0278C17.1687 55.5907 32.6916 55.5907 42.2545 46.0278C51.8174 36.4649 51.7837 20.942 42.2208 11.3792ZM32.7926 27.8112C32.3549 25.2184 34.5773 22.996 37.17 23.4338C38.7526 23.7032 40.0321 24.949 40.2679 26.5316C40.7056 29.1244 38.4832 31.3467 35.8905 30.909C34.3415 30.6396 33.062 29.3601 32.7926 27.8112Z" fill="white"/>
<path fill-rule="evenodd" clip-rule="evenodd" d="M29.3244 36.667L24.9133 42.728L20.5023 36.667H29.3244Z" fill="#ACCA53"/>
</svg>
