<svg width="149" height="53" viewBox="0 0 149 53" fill="none" xmlns="http://www.w3.org/2000/svg">
<path d="M61.2498 10.3374H63.4384V22.3247H61.2498V10.3374Z" fill="#3C3C3C"/>
<path d="M77.8164 14.6473C78.2878 15.2198 78.5235 16.0616 78.5235 17.2064V22.2909H76.4022V17.3074C76.4022 16.6677 76.3012 16.1963 76.0655 15.9269C75.8634 15.6238 75.493 15.4891 75.0216 15.4891C74.4492 15.4891 74.0115 15.6912 73.7084 16.0616C73.4054 16.432 73.237 16.9707 73.237 17.6778V22.3246H71.1157V17.3074C71.1157 16.6677 71.0146 16.1963 70.8126 15.9269C70.6106 15.6238 70.2402 15.4891 69.7688 15.4891C69.23 15.4891 68.7923 15.6912 68.4555 16.0616C68.1525 16.432 67.9841 16.9707 67.9841 17.6778V22.3246H65.8628V14.0412H67.9505V15.2198C68.1862 14.782 68.5566 14.4116 68.9943 14.1759C69.432 13.9402 69.9371 13.8392 70.5096 13.8392C71.7554 13.8392 72.5972 14.3443 73.0013 15.3881C73.2707 14.9167 73.6411 14.5127 74.1125 14.2433C74.5839 13.9739 75.1563 13.8392 75.7287 13.8392C76.6379 13.8055 77.345 14.1086 77.8164 14.6473Z" fill="#3C3C3C"/>
<path d="M87.3456 14.3781C87.918 14.7485 88.3557 15.2536 88.6588 15.927C88.9618 16.6004 89.1302 17.3412 89.1302 18.2167C89.1302 19.0922 88.9618 19.833 88.6588 20.4727C88.3557 21.1125 87.918 21.6176 87.3456 21.9543C86.8068 22.291 86.1334 22.4931 85.4262 22.4931C84.8201 22.4931 84.3151 22.3584 83.8436 22.1227C83.3722 21.887 83.0355 21.5166 82.7661 21.0788V25.4225H80.6785V14.0414H82.7661V15.2872C83.0019 14.8158 83.3722 14.4791 83.8436 14.2097C84.3151 13.9403 84.8538 13.8393 85.4599 13.8393C86.167 13.8057 86.8068 14.0077 87.3456 14.3781ZM86.4364 20.136C86.8068 19.6646 87.0088 19.0248 87.0088 18.183C87.0088 17.3076 86.8068 16.6678 86.4364 16.1627C86.066 15.6913 85.5273 15.4556 84.8875 15.4556C84.214 15.4556 83.6753 15.6913 83.3049 16.1627C82.9345 16.6341 82.7661 17.2739 82.7661 18.1494C82.7661 18.9912 82.9345 19.6646 83.3049 20.136C83.6753 20.6074 84.214 20.8431 84.8875 20.8431C85.5609 20.8095 86.066 20.6074 86.4364 20.136Z" fill="#3C3C3C"/>
<path d="M97.0431 14.681C97.6156 15.2534 97.8849 16.1289 97.8849 17.3074V22.3583H95.8646V21.0787C95.6626 21.5165 95.3595 21.8532 94.9555 22.1226C94.5514 22.3583 94.0463 22.493 93.5076 22.493C92.9688 22.493 92.4637 22.3919 91.9923 22.1562C91.5546 21.9205 91.1842 21.6175 90.9148 21.2134C90.6454 20.8093 90.5107 20.3716 90.5107 19.9002C90.5107 19.2941 90.6791 18.8227 90.9822 18.4523C91.2852 18.1156 91.7903 17.8462 92.4974 17.6778C93.2045 17.5095 94.181 17.4421 95.3932 17.4421H95.8309V17.0381C95.8309 16.4656 95.6963 16.0616 95.4605 15.8259C95.2248 15.5902 94.8208 15.4555 94.2483 15.4555C93.8106 15.4555 93.3392 15.5228 92.8678 15.6912C92.3964 15.8595 91.925 16.0616 91.4536 16.3309L90.8475 14.883C91.3189 14.58 91.8576 14.3443 92.5311 14.1423C93.2045 13.9402 93.8106 13.8392 94.4167 13.8392C95.6289 13.8055 96.4707 14.1086 97.0431 14.681ZM95.3259 20.3716C95.6963 20.0012 95.8646 19.4961 95.8646 18.89V18.5196H95.5616C94.7871 18.5196 94.2147 18.5533 93.8106 18.6207C93.4065 18.688 93.1035 18.8227 92.9015 18.991C92.7331 19.1594 92.6321 19.3951 92.6321 19.6982C92.6321 20.0686 92.7668 20.3716 93.0025 20.6073C93.2382 20.843 93.5749 20.944 93.9453 20.944C94.5177 20.944 94.9891 20.742 95.3259 20.3716Z" fill="#3C3C3C"/>
<path d="M101.589 21.9541C100.949 21.6174 100.444 21.1123 100.107 20.4725C99.7707 19.8328 99.6023 19.0583 99.6023 18.2165C99.6023 17.341 99.7706 16.6002 100.141 15.9268C100.511 15.2533 101.017 14.7483 101.656 14.3779C102.33 14.0075 103.071 13.8391 103.946 13.8391C104.518 13.8391 105.125 13.9401 105.663 14.1085C106.236 14.3105 106.673 14.5462 107.01 14.8493L106.404 16.3308C106.067 16.0615 105.697 15.8258 105.293 15.6911C104.889 15.5564 104.518 15.4554 104.114 15.4554C103.374 15.4554 102.801 15.6911 102.397 16.1288C101.993 16.6002 101.791 17.24 101.791 18.1155C101.791 18.9573 101.993 19.6307 102.397 20.0685C102.801 20.5399 103.374 20.7419 104.114 20.7419C104.485 20.7419 104.889 20.6746 105.293 20.5062C105.697 20.3715 106.067 20.1358 106.404 19.8664L107.01 21.348C106.64 21.6847 106.168 21.9204 105.63 22.1225C105.057 22.3245 104.485 22.3918 103.845 22.3918C102.97 22.4592 102.229 22.2908 101.589 21.9541Z" fill="#3C3C3C"/>
<path d="M113.442 20.8094L113.341 22.392C113.004 22.4257 112.701 22.4593 112.398 22.4593C111.219 22.4593 110.377 22.19 109.805 21.6512C109.266 21.1125 108.963 20.3043 108.963 19.2605V15.6239H107.381V14.0413H108.963V11.5496H111.085V14.0413H113.273V15.6239H111.085V19.2268C111.085 20.338 111.59 20.8768 112.633 20.8768C112.903 20.8768 113.172 20.8431 113.442 20.8094Z" fill="#3C3C3C"/>
<path d="M61.2498 30.5068H69.0954V32.2578H63.4048V35.524H68.7587V37.2749H63.4048V42.4941H61.2498V30.5068Z" fill="#3C3C3C"/>
<path d="M75.9644 35.7597L74.7185 35.8944C73.3043 36.0291 72.5972 36.7699 72.5972 38.0494V42.5278H70.4758V34.2108H72.4962V35.6587C72.9339 34.6485 73.8094 34.1098 75.1563 34.0424L75.796 33.9751L75.9644 35.7597Z" fill="#3C3C3C"/>
<path d="M83.1366 34.8169C83.7091 35.3893 83.9785 36.2648 83.9785 37.4433V42.4942H81.9581V41.2146C81.7561 41.6524 81.453 41.9891 81.049 42.2585C80.6449 42.4942 80.1398 42.6288 79.6011 42.6288C79.0623 42.6288 78.5572 42.5278 78.0858 42.2921C77.6481 42.0564 77.2777 41.7534 77.0083 41.3493C76.7389 40.9452 76.6042 40.5075 76.6042 40.0361C76.6042 39.43 76.7726 38.9586 77.0757 38.5882C77.3787 38.2515 77.8838 37.9821 78.5909 37.8137C79.298 37.6454 80.2745 37.578 81.4867 37.578H81.9245V37.174C81.9245 36.6015 81.7898 36.1975 81.5541 35.9618C81.3184 35.7261 80.9143 35.5914 80.3419 35.5914C79.9041 35.5914 79.4327 35.6587 78.9613 35.8271C78.4899 35.9954 78.0185 36.1975 77.5471 36.4668L76.941 35.0189C77.4124 34.7159 77.9511 34.4802 78.6246 34.2781C79.298 34.0761 79.9041 33.9751 80.5102 33.9751C81.7224 33.9751 82.5642 34.2781 83.1366 34.8169ZM81.4194 40.5412C81.7898 40.1708 81.9581 39.6657 81.9581 39.0596V38.6892H81.6551C80.8806 38.6892 80.3082 38.7229 79.9041 38.7902C79.5001 38.8576 79.197 38.9923 78.995 39.1606C78.8266 39.329 78.7256 39.5647 78.7256 39.8677C78.7256 40.2381 78.8603 40.5412 79.096 40.7769C79.3317 41.0126 79.6684 41.1136 80.0388 41.1136C80.6112 41.1136 81.0827 40.9116 81.4194 40.5412Z" fill="#3C3C3C"/>
<path d="M98.1206 34.8171C98.592 35.3896 98.8277 36.2314 98.8277 37.3762V42.4607H96.7064V37.4436C96.7064 36.8038 96.6054 36.3324 96.3697 36.063C96.1676 35.7599 95.7972 35.6253 95.3258 35.6253C94.7534 35.6253 94.3157 35.8273 94.0126 36.1977C93.7096 36.5681 93.5412 37.1068 93.5412 37.814V42.4607H91.4199V37.4436C91.4199 36.8038 91.3188 36.3324 91.1168 36.063C90.9148 35.7599 90.5444 35.6253 90.073 35.6253C89.5342 35.6253 89.0965 35.8273 88.7598 36.1977C88.4567 36.5681 88.2883 37.1068 88.2883 37.814V42.4607H86.167V34.1437H88.2547V35.3222C88.4904 34.8845 88.8608 34.5141 89.2985 34.2784C89.7362 34.0427 90.2413 33.9417 90.8138 33.9417C92.0596 33.9417 92.9014 34.4467 93.3055 35.4906C93.5749 35.0192 93.9453 34.6151 94.4167 34.3457C94.8881 34.0763 95.4605 33.9417 96.0329 33.9417C96.9758 33.9753 97.6829 34.2784 98.1206 34.8171Z" fill="#3C3C3C"/>
<path d="M108.29 38.7229H102.633C102.7 39.4974 102.936 40.0698 103.34 40.4402C103.744 40.8106 104.316 41.0126 105.024 41.0126C105.933 41.0126 106.775 40.7096 107.549 40.1371L108.155 41.585C107.785 41.8881 107.28 42.1575 106.707 42.3595C106.135 42.5615 105.529 42.6626 104.956 42.6626C103.609 42.6626 102.532 42.2922 101.724 41.5177C100.949 40.7432 100.545 39.6994 100.545 38.3525C100.545 37.5107 100.714 36.7363 101.05 36.0965C101.387 35.423 101.858 34.918 102.498 34.5812C103.104 34.2108 103.811 34.0425 104.586 34.0425C105.731 34.0425 106.64 34.4129 107.313 35.1537C107.987 35.8945 108.323 36.9046 108.323 38.1842V38.7229H108.29ZM103.273 36.0291C102.936 36.3995 102.7 36.9046 102.633 37.5781H106.471C106.438 36.8709 106.269 36.3659 105.966 35.9955C105.663 35.6251 105.192 35.4567 104.653 35.4567C104.047 35.4904 103.609 35.6587 103.273 36.0291Z" fill="#3C3C3C"/>
<path d="M123.173 34.1772L119.907 42.4943H118.055L116.001 37.1404L114.014 42.4943H112.162L108.896 34.1772H111.084L113.206 39.9689L115.327 34.1772H116.842L118.964 40.0025L121.085 34.1772H123.173Z" fill="#3C3C3C"/>
<path d="M125.867 42.0903C125.227 41.7536 124.722 41.2485 124.385 40.5751C124.048 39.9016 123.846 39.1608 123.846 38.2854C123.846 37.4099 124.015 36.6354 124.385 35.9957C124.722 35.3559 125.227 34.8508 125.867 34.4804C126.506 34.1437 127.247 33.9417 128.089 33.9417C128.931 33.9417 129.671 34.11 130.311 34.4804C130.951 34.8171 131.456 35.3222 131.793 35.9957C132.13 36.6354 132.298 37.4099 132.298 38.2854C132.298 39.1608 132.13 39.9353 131.793 40.5751C131.456 41.2485 130.951 41.7536 130.311 42.0903C129.671 42.427 128.931 42.6291 128.089 42.6291C127.247 42.6291 126.506 42.4607 125.867 42.0903ZM129.638 40.3057C130.008 39.868 130.177 39.1945 130.177 38.2854C130.177 37.4099 130.008 36.7364 129.638 36.2987C129.267 35.8273 128.762 35.6253 128.089 35.6253C127.415 35.6253 126.877 35.861 126.506 36.2987C126.136 36.7701 125.968 37.4099 125.968 38.2854C125.968 39.1608 126.136 39.8343 126.506 40.3057C126.877 40.7434 127.382 40.9791 128.055 40.9791C128.762 40.9791 129.301 40.7434 129.638 40.3057Z" fill="#3C3C3C"/>
<path d="M139.537 35.7597L138.292 35.8944C136.877 36.0291 136.17 36.7699 136.17 38.0494V42.5278H134.049V34.2108H136.069V35.6587C136.507 34.6485 137.382 34.1098 138.729 34.0424L139.369 33.9751L139.537 35.7597Z" fill="#3C3C3C"/>
<path d="M146.272 42.4941L142.703 38.6892V42.4941H140.581V30.5068H142.703V37.8137L146.036 34.1771H148.629L144.891 38.1504L148.898 42.4605H146.272V42.4941Z" fill="#3C3C3C"/>
<path d="M36.3996 8.11499C36.3996 8.11499 31.3151 16.23 25.0184 16.23C18.7217 16.23 13.6372 8.11499 13.6372 8.11499C13.6372 8.11499 18.7217 0 25.0184 0C31.3151 0 36.3996 8.11499 36.3996 8.11499Z" fill="#006D68"/>
<path d="M25.0184 10.9098C26.8223 10.9098 28.2846 9.44752 28.2846 7.64364C28.2846 5.83977 26.8223 4.37744 25.0184 4.37744C23.2145 4.37744 21.7522 5.83977 21.7522 7.64364C21.7522 9.44752 23.2145 10.9098 25.0184 10.9098Z" fill="#ACCA53"/>
<path d="M16.7687 20.7421C15.3208 19.7656 13.6036 19.3279 11.8526 19.4962C9.76493 19.6983 7.94663 20.7421 6.66709 22.392C4.37738 25.3552 4.68043 29.5979 7.34053 32.258C7.44155 32.359 7.50889 32.4263 7.60991 32.5274C9.05781 33.8069 10.9098 34.4467 12.8291 34.312C13.1995 34.2783 13.4689 34.5477 13.5025 34.8844C13.5025 35.0528 13.4689 35.2211 13.3342 35.3558C13.2332 35.4905 13.0648 35.5578 12.8964 35.5578C12.6944 35.5578 12.4924 35.5915 12.324 35.5915C10.27 35.5915 8.28335 34.8507 6.76811 33.4702C6.66709 33.3692 6.56607 33.2681 6.46506 33.1671C3.33354 30.0693 2.99682 25.1195 5.6906 21.6512C7.17217 19.6983 9.32719 18.5197 11.7516 18.284C12.6607 18.183 13.5699 18.2504 14.4454 18.4524L7.17217 11.1792C-2.39072 20.7421 -2.39072 36.265 7.17217 45.8279L24.4797 28.5204L16.7687 20.7421ZM12.8628 30.7427C10.7751 30.7427 9.05781 29.0254 9.05781 26.9378C9.05781 24.8501 10.7414 23.1665 12.8628 23.1665C14.9841 23.1665 16.6677 24.8838 16.6677 26.9714C16.6677 29.0591 14.9504 30.7427 12.8628 30.7427Z" fill="#3C3C3C"/>
<path d="M41.8208 11.1792C41.8208 11.1792 37.7465 15.3209 34.5139 18.5871C35.0527 18.4524 35.6251 18.3514 36.1975 18.3177C38.4536 18.183 40.6086 18.9238 42.2922 20.439C42.3932 20.5401 42.4942 20.6411 42.5953 20.7421C45.7268 23.8399 46.0635 28.7897 43.3697 32.258C41.7198 34.413 39.127 35.6925 36.4333 35.6925C36.3322 35.6925 36.2312 35.6925 36.1639 35.6925C35.9955 35.6925 35.8272 35.6252 35.7261 35.4905C35.6251 35.3558 35.5578 35.2211 35.5578 35.0528C35.5578 34.8844 35.6251 34.716 35.7598 34.615C35.8945 34.514 36.0292 34.4467 36.1975 34.4467C38.5883 34.514 40.9117 33.4365 42.3932 31.5172C44.6829 28.554 44.3799 24.3113 41.7198 21.6512C41.6188 21.5502 41.5514 21.4829 41.4504 21.3819C40.0362 20.1023 38.2179 19.4626 36.2986 19.5972C34.6486 19.6983 32.9987 20.3044 31.7528 21.3819C31.5508 21.5502 30.911 22.1563 30.6416 22.392C30.5406 22.493 30.4396 22.5941 30.3386 22.6951L7.20581 45.8279C16.7687 55.3908 32.2916 55.3908 41.8545 45.8279C51.4174 36.265 51.3837 20.7421 41.8208 11.1792ZM32.3926 27.6112C31.9549 25.0185 34.1772 22.7961 36.77 23.2338C38.3526 23.5032 39.6321 24.7491 39.8678 26.3317C40.3056 28.9244 38.0832 31.1468 35.4904 30.7091C33.9415 30.4397 32.662 29.1601 32.3926 27.6112Z" fill="#006D68"/>
<path fill-rule="evenodd" clip-rule="evenodd" d="M28.9244 36.467L24.5133 42.528L20.1023 36.467H28.9244Z" fill="#ACCA53"/>
</svg>
